<svg xmlns="http://www.w3.org/2000/svg" version="1.1" xmlns:xlink="http://www.w3.org/1999/xlink" xmlns:svgjs="http://svgjs.dev/svgjs" width="1500" height="1500" viewBox="0 0 1500 1500"><rect width="1500" height="1500" fill="#000000"></rect><g transform="matrix(0.6666666666666666,0,0,0.6666666666666666,249.39393939393938,578.1936104868889)"><svg viewBox="0 0 396 136" data-background-color="#fffff5" preserveAspectRatio="xMidYMid meet" height="515" width="1500" xmlns="http://www.w3.org/2000/svg" xmlns:xlink="http://www.w3.org/1999/xlink"><g id="tight-bounds" transform="matrix(1,0,0,1,0.2400000000000091,0.055346525581910555)"><svg viewBox="0 0 395.52 135.88930694883618" height="135.88930694883618" width="395.52"><g><svg viewBox="0 0 395.52 135.88930694883618" height="135.88930694883618" width="395.52"><g transform="matrix(1,0,0,1,0,97.78904858151043)"><svg viewBox="0 0 395.52 38.100258367325736" height="38.100258367325736" width="395.52"><g id="textblocktransform"><svg viewBox="0 0 395.52 38.100258367325736" height="38.100258367325736" width="395.52" id="textblock"><g><svg viewBox="0 0 395.52 20.549458796363112" height="20.549458796363112" width="395.52"><g transform="matrix(1,0,0,1,0,0)"><svg width="395.52" viewBox="1.35 -42.3 1039.25 54" height="20.549458796363112" data-palette-color="#091627"><path d="M30.3 0L26.2-11.05 10.4-11.05 6.35 0 1.35 0 15.6-38.35 21-38.35 35.3 0 30.3 0ZM12.05-15.4L24.55-15.4 18.3-32.3 12.05-15.4ZM54.15-28.25L55.3-28.25 55.3-23.85 54.15-23.85Q49.85-23.85 45.8-20.4L45.8-20.4 45.8 0 41.1 0 41.1-27.65 45.8-27.65 45.8-24.55Q49.9-28.25 54.15-28.25L54.15-28.25ZM69.8-27.65Q74.2-27.65 76.5-26.18 78.8-24.7 79.55-22.23 80.3-19.75 80.3-16L80.3-16 80.3 0 75.6 0 75.6-2.75Q73.7-0.95 71.8-0.15 69.9 0.65 67.7 0.65L67.7 0.65Q65.1 0.65 63-0.48 60.9-1.6 59.67-3.73 58.45-5.85 58.45-8.75L58.45-8.75Q58.45-13.25 61.25-15.73 64.05-18.2 68.8-18.2L68.8-18.2Q72.55-18.2 75.55-16.55L75.55-16.55Q75.5-19 75.05-20.45 74.6-21.9 73.2-22.68 71.8-23.45 69.05-23.45L69.05-23.45 65.35-23.45 65.35-27.65 69.8-27.65ZM68.35-3.4Q70.05-3.4 71.92-4.2 73.8-5 75.6-6.6L75.6-6.6 75.6-12.9Q72.8-14.3 69.5-14.3L69.5-14.3Q66.85-14.3 65.05-13.03 63.25-11.75 63.25-8.75L63.25-8.75Q63.25-5.95 64.77-4.67 66.3-3.4 68.35-3.4L68.35-3.4ZM101.09-28.25L102.24-28.25 102.24-23.85 101.09-23.85Q96.79-23.85 92.74-20.4L92.74-20.4 92.74 0 88.04 0 88.04-27.65 92.74-27.65 92.74-24.55Q96.84-28.25 101.09-28.25L101.09-28.25ZM116.64 0.85Q113.59 0.85 111.24 0.35 108.89-0.15 106.34-1.35L106.34-1.35 106.34-6Q111.09-3.35 116.64-3.35L116.64-3.35Q119.44-3.35 120.67-4.48 121.89-5.6 121.89-7.45L121.89-7.45Q121.89-9.25 120.92-10.1 119.94-10.95 117.74-11.55L117.74-11.55 114.49-12.35Q110.99-13.2 108.99-15.05 106.99-16.9 106.99-20.5L106.99-20.5Q106.99-24.25 109.44-26.35 111.89-28.45 116.64-28.45L116.64-28.45Q119.09-28.45 121.19-27.98 123.29-27.5 125.39-26.65L125.39-26.65 125.39-22.25Q123.34-23.2 121.34-23.73 119.34-24.25 116.79-24.25L116.79-24.25Q114.14-24.25 112.97-23.23 111.79-22.2 111.79-20.65L111.79-20.65Q111.79-18.95 112.82-18.07 113.84-17.2 115.79-16.7L115.79-16.7 119.09-15.95Q121.59-15.35 123.22-14.45 124.84-13.55 125.77-11.93 126.69-10.3 126.69-7.6L126.69-7.6Q126.69-3.55 123.97-1.35 121.24 0.85 116.64 0.85L116.64 0.85ZM145.89 0.85Q141.49 0.85 138.41-1.07 135.34-3 133.79-6.33 132.24-9.65 132.24-13.8L132.24-13.8Q132.24-17.95 133.79-21.28 135.34-24.6 138.41-26.53 141.49-28.45 145.89-28.45L145.89-28.45Q150.29-28.45 153.36-26.53 156.44-24.6 157.96-21.28 159.49-17.95 159.49-13.8L159.49-13.8Q159.49-9.65 157.96-6.33 156.44-3 153.36-1.07 150.29 0.85 145.89 0.85L145.89 0.85ZM145.89-3.4Q150.04-3.4 152.31-6.3 154.59-9.2 154.59-13.8L154.59-13.8Q154.59-18.4 152.31-21.28 150.04-24.15 145.89-24.15L145.89-24.15Q141.74-24.15 139.44-21.28 137.14-18.4 137.14-13.8L137.14-13.8Q137.14-9.2 139.44-6.3 141.74-3.4 145.89-3.4L145.89-3.4ZM200.58 0L190.83-16.05 183.48-16.05 183.48 0 178.63 0 178.63-37.9 191.88-37.9Q204.28-37.9 204.28-26.9L204.28-26.9Q204.28-22.55 202.21-19.88 200.13-17.2 195.98-16.4L195.98-16.4 206.13 0 200.58 0ZM183.48-33.65L183.48-20.3 191.88-20.3Q199.28-20.3 199.33-26.9L199.33-26.9Q199.33-30.4 197.48-32.02 195.63-33.65 191.88-33.65L191.88-33.65 183.48-33.65ZM221.58-27.65Q225.98-27.65 228.28-26.18 230.58-24.7 231.33-22.23 232.08-19.75 232.08-16L232.08-16 232.08 0 227.38 0 227.38-2.75Q225.48-0.95 223.58-0.15 221.68 0.65 219.48 0.65L219.48 0.65Q216.88 0.65 214.78-0.48 212.68-1.6 211.46-3.73 210.23-5.85 210.23-8.75L210.23-8.75Q210.23-13.25 213.03-15.73 215.83-18.2 220.58-18.2L220.58-18.2Q224.33-18.2 227.33-16.55L227.33-16.55Q227.28-19 226.83-20.45 226.38-21.9 224.98-22.68 223.58-23.45 220.83-23.45L220.83-23.45 217.13-23.45 217.13-27.65 221.58-27.65ZM220.13-3.4Q221.83-3.4 223.71-4.2 225.58-5 227.38-6.6L227.38-6.6 227.38-12.9Q224.58-14.3 221.28-14.3L221.28-14.3Q218.63-14.3 216.83-13.03 215.03-11.75 215.03-8.75L215.03-8.75Q215.03-5.95 216.56-4.67 218.08-3.4 220.13-3.4L220.13-3.4ZM272.38-27.65L277.28-27.65 268.78 0.45 263.73 0.45 256.88-20.75 250.08 0.45 245.03 0.45 236.48-27.65 241.38-27.65 247.58-5.7 254.18-27.65 259.58-27.65 266.23-5.7 272.38-27.65ZM317.72-33.55L299.62-33.55 299.62-20.55 315.22-20.55 315.22-16.2 299.62-16.2 299.62 0 294.77 0 294.77-37.9 317.72-37.9 317.72-33.55ZM336.52 0.85Q332.12 0.85 329.05-1.07 325.97-3 324.42-6.33 322.87-9.65 322.87-13.8L322.87-13.8Q322.87-17.95 324.42-21.28 325.97-24.6 329.05-26.53 332.12-28.45 336.52-28.45L336.52-28.45Q340.92-28.45 344-26.53 347.07-24.6 348.6-21.28 350.12-17.95 350.12-13.8L350.12-13.8Q350.12-9.65 348.6-6.33 347.07-3 344-1.07 340.92 0.85 336.52 0.85L336.52 0.85ZM336.52-3.4Q340.67-3.4 342.95-6.3 345.22-9.2 345.22-13.8L345.22-13.8Q345.22-18.4 342.95-21.28 340.67-24.15 336.52-24.15L336.52-24.15Q332.37-24.15 330.07-21.28 327.77-18.4 327.77-13.8L327.77-13.8Q327.77-9.2 330.07-6.3 332.37-3.4 336.52-3.4L336.52-3.4ZM369.37 0.85Q364.97 0.85 361.89-1.07 358.82-3 357.27-6.33 355.72-9.65 355.72-13.8L355.72-13.8Q355.72-17.95 357.27-21.28 358.82-24.6 361.89-26.53 364.97-28.45 369.37-28.45L369.37-28.45Q373.77-28.45 376.84-26.53 379.92-24.6 381.44-21.28 382.97-17.95 382.97-13.8L382.97-13.8Q382.97-9.65 381.44-6.33 379.92-3 376.84-1.07 373.77 0.85 369.37 0.85L369.37 0.85ZM369.37-3.4Q373.52-3.4 375.79-6.3 378.07-9.2 378.07-13.8L378.07-13.8Q378.07-18.4 375.79-21.28 373.52-24.15 369.37-24.15L369.37-24.15Q365.22-24.15 362.92-21.28 360.62-18.4 360.62-13.8L360.62-13.8Q360.62-9.2 362.92-6.3 365.22-3.4 369.37-3.4L369.37-3.4ZM408.87-42.3L413.57-42.3 413.57 0 408.87 0 408.87-2.5Q404.92 0.85 400.87 0.85L400.87 0.85Q395.27 0.85 391.92-2.9 388.57-6.65 388.57-13.8L388.57-13.8Q388.57-20.95 391.92-24.7 395.27-28.45 400.87-28.45L400.87-28.45Q404.87-28.45 408.87-25.05L408.87-25.05 408.87-42.3ZM401.47-3.5Q405.07-3.5 408.87-6.6L408.87-6.6 408.87-20.95Q405.17-24.05 401.47-24.05L401.47-24.05Q397.52-24.05 395.49-21.45 393.47-18.85 393.47-13.8L393.47-13.8Q393.47-8.75 395.49-6.13 397.52-3.5 401.47-3.5L401.47-3.5ZM464.41-37.9L469.76-37.9 469.76 0 464.91 0 464.91-30.55 453.31-14.4 450.76-14.4 439.26-30.55 439.26 0 434.41 0 434.41-37.9 439.71-37.9 452.06-20.6 464.41-37.9ZM488.11-27.65Q492.51-27.65 494.81-26.18 497.11-24.7 497.86-22.23 498.61-19.75 498.61-16L498.61-16 498.61 0 493.91 0 493.91-2.75Q492.01-0.95 490.11-0.15 488.21 0.65 486.01 0.65L486.01 0.65Q483.41 0.65 481.31-0.48 479.21-1.6 477.98-3.73 476.76-5.85 476.76-8.75L476.76-8.75Q476.76-13.25 479.56-15.73 482.36-18.2 487.11-18.2L487.11-18.2Q490.86-18.2 493.86-16.55L493.86-16.55Q493.81-19 493.36-20.45 492.91-21.9 491.51-22.68 490.11-23.45 487.36-23.45L487.36-23.45 483.66-23.45 483.66-27.65 488.11-27.65ZM486.66-3.4Q488.36-3.4 490.23-4.2 492.11-5 493.91-6.6L493.91-6.6 493.91-12.9Q491.11-14.3 487.81-14.3L487.81-14.3Q485.16-14.3 483.36-13.03 481.56-11.75 481.56-8.75L481.56-8.75Q481.56-5.95 483.08-4.67 484.61-3.4 486.66-3.4L486.66-3.4ZM518.41-22.95L512.01-22.95 512.01-7.15Q512.01-5.15 512.63-4.42 513.26-3.7 514.96-3.7L514.96-3.7Q516.46-3.7 518.16-4.1L518.16-4.1 518.16 0.15Q515.91 0.65 514.16 0.65L514.16 0.65Q510.36 0.65 508.83-0.9 507.31-2.45 507.31-6.1L507.31-6.1 507.31-22.95 503.71-22.95 503.71-27.3 507.31-27.3 507.31-36.8 512.01-36.8 512.01-27.3 518.41-27.3 518.41-22.95ZM528.2-13.45Q528.3-8.85 530.5-6.1 532.7-3.35 537.5-3.35L537.5-3.35Q541.15-3.35 545.5-5.4L545.5-5.4 546.95-1.5Q542.4 0.85 537.1 0.85L537.1 0.85Q532.7 0.85 529.6-1 526.5-2.85 524.9-6.15 523.3-9.45 523.3-13.85L523.3-13.85Q523.3-18.5 524.98-21.78 526.65-25.05 529.5-26.75 532.35-28.45 535.9-28.45L535.9-28.45Q541.35-28.45 544.45-25.05 547.55-21.65 547.55-15.3L547.55-15.3 547.55-13.45 528.2-13.45ZM535.9-24.25Q529.7-24.25 528.5-17.4L528.5-17.4 542.6-17.4Q542.35-20.9 540.7-22.58 539.05-24.25 535.9-24.25L535.9-24.25ZM567.3-28.25L568.45-28.25 568.45-23.85 567.3-23.85Q563-23.85 558.95-20.4L558.95-20.4 558.95 0 554.25 0 554.25-27.65 558.95-27.65 558.95-24.55Q563.05-28.25 567.3-28.25L567.3-28.25ZM574.45-32.85L574.45-40.4 579.15-40.4 579.15-32.85 574.45-32.85ZM574.45 0L574.45-27.65 579.15-27.65 579.15 0 574.45 0ZM596.64-27.65Q601.04-27.65 603.35-26.18 605.64-24.7 606.39-22.23 607.14-19.75 607.14-16L607.14-16 607.14 0 602.44 0 602.44-2.75Q600.54-0.95 598.64-0.15 596.75 0.65 594.54 0.65L594.54 0.65Q591.94 0.65 589.85-0.48 587.75-1.6 586.52-3.73 585.29-5.85 585.29-8.75L585.29-8.75Q585.29-13.25 588.1-15.73 590.89-18.2 595.64-18.2L595.64-18.2Q599.39-18.2 602.39-16.55L602.39-16.55Q602.35-19 601.89-20.45 601.44-21.9 600.04-22.68 598.64-23.45 595.89-23.45L595.89-23.45 592.19-23.45 592.19-27.65 596.64-27.65ZM595.19-3.4Q596.89-3.4 598.77-4.2 600.64-5 602.44-6.6L602.44-6.6 602.44-12.9Q599.64-14.3 596.35-14.3L596.35-14.3Q593.69-14.3 591.89-13.03 590.1-11.75 590.1-8.75L590.1-8.75Q590.1-5.95 591.62-4.67 593.14-3.4 595.19-3.4L595.19-3.4ZM621.94 0.65Q618.19 0.65 616.54-0.85 614.89-2.35 614.89-5.9L614.89-5.9 614.89-42.3 619.59-42.3 619.59-7.15Q619.59-5.15 620.22-4.42 620.84-3.7 622.59-3.7L622.59-3.7Q623.99-3.7 625.09-4L625.09-4 625.09 0.3Q623.09 0.65 621.94 0.65L621.94 0.65ZM658.53-4.2L676.88-4.2 676.88 0 653.68 0 653.68-37.9 676.63-37.9 676.63-33.7 658.53-33.7 658.53-21.15 674.13-21.15 674.13-16.95 658.53-16.95 658.53-4.2ZM707.23 0L701.58 0 694.28-10.75 687.28 0 681.63 0 691.38-14.45 682.13-27.65 687.78-27.65 694.48-17.75 701.23-27.65 706.78-27.65 697.28-14.05 707.23 0ZM726.18-28.45Q731.78-28.45 735.1-24.7 738.43-20.95 738.43-13.8L738.43-13.8Q738.43-6.65 735.1-2.9 731.78 0.85 726.18 0.85L726.18 0.85Q722.13 0.85 718.18-2.5L718.18-2.5 718.18 11.7 713.48 11.7 713.48-27.65 718.18-27.65 718.18-25.05Q722.18-28.45 726.18-28.45L726.18-28.45ZM725.53-3.5Q729.48-3.5 731.53-6.13 733.58-8.75 733.58-13.8L733.58-13.8Q733.58-18.85 731.53-21.45 729.48-24.05 725.53-24.05L725.53-24.05Q721.78-24.05 718.18-20.95L718.18-20.95 718.18-6.6Q721.88-3.5 725.53-3.5L725.53-3.5ZM757.73 0.85Q753.33 0.85 750.25-1.07 747.18-3 745.63-6.33 744.08-9.65 744.08-13.8L744.08-13.8Q744.08-17.95 745.63-21.28 747.18-24.6 750.25-26.53 753.33-28.45 757.73-28.45L757.73-28.45Q762.13-28.45 765.2-26.53 768.28-24.6 769.8-21.28 771.33-17.95 771.33-13.8L771.33-13.8Q771.33-9.65 769.8-6.33 768.28-3 765.2-1.07 762.13 0.85 757.73 0.85L757.73 0.85ZM757.73-3.4Q761.88-3.4 764.15-6.3 766.43-9.2 766.43-13.8L766.43-13.8Q766.43-18.4 764.15-21.28 761.88-24.15 757.73-24.15L757.73-24.15Q753.58-24.15 751.28-21.28 748.98-18.4 748.98-13.8L748.98-13.8Q748.98-9.2 751.28-6.3 753.58-3.4 757.73-3.4L757.73-3.4ZM791.67-28.25L792.82-28.25 792.82-23.85 791.67-23.85Q787.37-23.85 783.32-20.4L783.32-20.4 783.32 0 778.62 0 778.62-27.65 783.32-27.65 783.32-24.55Q787.42-28.25 791.67-28.25L791.67-28.25ZM810.87-22.95L804.47-22.95 804.47-7.15Q804.47-5.15 805.1-4.42 805.72-3.7 807.42-3.7L807.42-3.7Q808.92-3.7 810.62-4.1L810.62-4.1 810.62 0.15Q808.37 0.65 806.62 0.65L806.62 0.65Q802.82 0.65 801.3-0.9 799.77-2.45 799.77-6.1L799.77-6.1 799.77-22.95 796.17-22.95 796.17-27.3 799.77-27.3 799.77-36.8 804.47-36.8 804.47-27.3 810.87-27.3 810.87-22.95ZM849.17-19.25Q855.97-17.05 855.97-10.25L855.97-10.25Q855.97-5.05 852.84-2.53 849.72 0 842.42 0L842.42 0 829.32 0 829.32-37.9 842.42-37.9Q849.07-37.9 851.77-35.4 854.47-32.9 854.47-27.75L854.47-27.75Q854.47-24.7 853.19-22.58 851.92-20.45 849.17-19.25L849.17-19.25ZM834.17-33.8L834.17-21.05 842.42-21.05Q849.47-21.05 849.52-27.4L849.52-27.4Q849.52-30.9 847.97-32.35 846.42-33.8 842.42-33.8L842.42-33.8 834.17-33.8ZM851.02-10.55Q851.02-13.9 848.84-15.43 846.67-16.95 842.42-16.95L842.42-16.95 834.17-16.95 834.17-4.1 842.42-4.1Q847.12-4.1 849.07-5.65 851.02-7.2 851.02-10.55L851.02-10.55ZM882.16-27.65L886.86-27.65 886.86 0 882.16 0 882.16-2.95Q878.06 0.6 873.71 0.6L873.71 0.6Q868.61 0.6 866.14-2.1 863.66-4.8 863.66-10.95L863.66-10.95 863.66-27.65 868.36-27.65 868.36-10.95Q868.36-7.05 869.69-5.4 871.01-3.75 874.36-3.75L874.36-3.75Q878.26-3.75 882.16-7.15L882.16-7.15 882.16-27.65ZM904.26 0.85Q901.21 0.85 898.86 0.35 896.51-0.15 893.96-1.35L893.96-1.35 893.96-6Q898.71-3.35 904.26-3.35L904.26-3.35Q907.06-3.35 908.29-4.48 909.51-5.6 909.51-7.45L909.51-7.45Q909.51-9.25 908.54-10.1 907.56-10.95 905.36-11.55L905.36-11.55 902.11-12.35Q898.61-13.2 896.61-15.05 894.61-16.9 894.61-20.5L894.61-20.5Q894.61-24.25 897.06-26.35 899.51-28.45 904.26-28.45L904.26-28.45Q906.71-28.45 908.81-27.98 910.91-27.5 913.01-26.65L913.01-26.65 913.01-22.25Q910.96-23.2 908.96-23.73 906.96-24.25 904.41-24.25L904.41-24.25Q901.76-24.25 900.59-23.23 899.41-22.2 899.41-20.65L899.41-20.65Q899.41-18.95 900.44-18.07 901.46-17.2 903.41-16.7L903.41-16.7 906.71-15.95Q909.21-15.35 910.84-14.45 912.46-13.55 913.39-11.93 914.31-10.3 914.31-7.6L914.31-7.6Q914.31-3.55 911.59-1.35 908.86 0.85 904.26 0.85L904.26 0.85ZM921.56-32.85L921.56-40.4 926.26-40.4 926.26-32.85 921.56-32.85ZM921.56 0L921.56-27.65 926.26-27.65 926.26 0 921.56 0ZM948.41-28.25Q953.51-28.25 955.98-25.55 958.46-22.85 958.46-16.65L958.46-16.65 958.46 0 953.76 0 953.76-16.65Q953.76-20.55 952.43-22.2 951.11-23.85 947.76-23.85L947.76-23.85Q943.86-23.85 939.96-20.45L939.96-20.45 939.96 0 935.26 0 935.26-27.65 939.96-27.65 939.96-24.7Q944.06-28.25 948.41-28.25L948.41-28.25ZM970.4-13.45Q970.5-8.85 972.7-6.1 974.9-3.35 979.7-3.35L979.7-3.35Q983.35-3.35 987.7-5.4L987.7-5.4 989.15-1.5Q984.6 0.85 979.3 0.85L979.3 0.85Q974.9 0.85 971.8-1 968.7-2.85 967.1-6.15 965.5-9.45 965.5-13.85L965.5-13.85Q965.5-18.5 967.18-21.78 968.85-25.05 971.7-26.75 974.55-28.45 978.1-28.45L978.1-28.45Q983.55-28.45 986.65-25.05 989.75-21.65 989.75-15.3L989.75-15.3 989.75-13.45 970.4-13.45ZM978.1-24.25Q971.9-24.25 970.7-17.4L970.7-17.4 984.8-17.4Q984.55-20.9 982.9-22.58 981.25-24.25 978.1-24.25L978.1-24.25ZM1004.85 0.85Q1001.8 0.85 999.45 0.35 997.1-0.15 994.55-1.35L994.55-1.35 994.55-6Q999.3-3.35 1004.85-3.35L1004.85-3.35Q1007.65-3.35 1008.88-4.48 1010.1-5.6 1010.1-7.45L1010.1-7.45Q1010.1-9.25 1009.13-10.1 1008.15-10.95 1005.95-11.55L1005.95-11.55 1002.7-12.35Q999.2-13.2 997.2-15.05 995.2-16.9 995.2-20.5L995.2-20.5Q995.2-24.25 997.65-26.35 1000.1-28.45 1004.85-28.45L1004.85-28.45Q1007.3-28.45 1009.4-27.98 1011.5-27.5 1013.6-26.65L1013.6-26.65 1013.6-22.25Q1011.55-23.2 1009.55-23.73 1007.55-24.25 1005-24.25L1005-24.25Q1002.35-24.25 1001.18-23.23 1000-22.2 1000-20.65L1000-20.65Q1000-18.95 1001.03-18.07 1002.05-17.2 1004-16.7L1004-16.7 1007.3-15.95Q1009.8-15.35 1011.43-14.45 1013.05-13.55 1013.98-11.93 1014.9-10.3 1014.9-7.6L1014.9-7.6Q1014.9-3.55 1012.18-1.35 1009.45 0.85 1004.85 0.85L1004.85 0.85ZM1030.55 0.85Q1027.5 0.85 1025.15 0.35 1022.8-0.15 1020.25-1.35L1020.25-1.35 1020.25-6Q1025-3.35 1030.55-3.35L1030.55-3.35Q1033.35-3.35 1034.57-4.48 1035.8-5.6 1035.8-7.45L1035.8-7.45Q1035.8-9.25 1034.82-10.1 1033.85-10.95 1031.65-11.55L1031.65-11.55 1028.4-12.35Q1024.9-13.2 1022.9-15.05 1020.9-16.9 1020.9-20.5L1020.9-20.5Q1020.9-24.25 1023.35-26.35 1025.8-28.45 1030.55-28.45L1030.55-28.45Q1033-28.45 1035.1-27.98 1037.2-27.5 1039.3-26.65L1039.3-26.65 1039.3-22.25Q1037.25-23.2 1035.25-23.73 1033.25-24.25 1030.7-24.25L1030.7-24.25Q1028.05-24.25 1026.87-23.23 1025.7-22.2 1025.7-20.65L1025.7-20.65Q1025.7-18.95 1026.72-18.07 1027.75-17.2 1029.7-16.7L1029.7-16.7 1033-15.95Q1035.5-15.35 1037.12-14.45 1038.75-13.55 1039.67-11.93 1040.6-10.3 1040.6-7.6L1040.6-7.6Q1040.6-3.55 1037.87-1.35 1035.15 0.85 1030.55 0.85L1030.55 0.85Z" opacity="1" transform="matrix(1,0,0,1,0,0)" fill="#ffffff" class="wordmark-text-0" data-fill-palette-color="primary" id="text-0"></path></svg></g></svg></g><g transform="matrix(1,0,0,1,160.92555654746215,25.40069283117333)"><svg viewBox="0 0 73.66888690507568 12.699565536152402" height="12.699565536152402" width="73.66888690507568"><g transform="matrix(1,0,0,1,0,0)"><svg width="73.66888690507568" viewBox="1.55 -32.8 193.73 33.4" height="12.699565536152402" data-palette-color="#091627"><path d="M10.6 0.6L10.6 0.6Q4.45 0.6 1.55-4.65L1.55-4.65 4.55-6.75Q5.65-4.8 7.05-3.93 8.45-3.05 10.2-3.05L10.2-3.05Q12.85-3.05 14.15-4.67 15.45-6.3 15.45-10.05L15.45-10.05 15.45-32.8 19.65-32.8 19.65-9.65Q19.65-7.55 19.13-5.68 18.6-3.8 17.53-2.4 16.45-1 14.73-0.2 13 0.6 10.6 0.6ZM35.2 0.6L35.2 0.6Q31.3 0.6 29.52-1.8 27.75-4.2 27.75-8.9L27.75-8.9 27.75-24.3 31.9-24.3 31.9-9.45Q31.9-6 32.97-4.48 34.05-2.95 36.45-2.95L36.45-2.95Q38.35-2.95 39.8-3.93 41.25-4.9 43-7.05L43-7.05 43-24.3 47.1-24.3 47.1 0 43.7 0 43.35-3.8 43.2-3.8Q41.5-1.8 39.62-0.6 37.75 0.6 35.2 0.6ZM61.65 0.6L61.65 0.6Q59.05 0.6 56.7-0.35 54.35-1.3 52.6-2.75L52.6-2.75 54.65-5.5Q56.25-4.2 57.92-3.4 59.6-2.6 61.8-2.6L61.8-2.6Q64.2-2.6 65.4-3.7 66.6-4.8 66.6-6.4L66.6-6.4Q66.6-7.35 66.1-8.05 65.6-8.75 64.82-9.28 64.05-9.8 63.05-10.2 62.05-10.6 61.05-11L61.05-11Q59.75-11.45 58.45-12.03 57.15-12.6 56.12-13.43 55.1-14.25 54.45-15.35 53.8-16.45 53.8-18L53.8-18Q53.8-19.45 54.37-20.73 54.95-22 56.02-22.93 57.1-23.85 58.65-24.38 60.2-24.9 62.15-24.9L62.15-24.9Q64.45-24.9 66.37-24.1 68.3-23.3 69.7-22.15L69.7-22.15 67.75-19.55Q66.5-20.5 65.15-21.1 63.8-21.7 62.2-21.7L62.2-21.7Q59.9-21.7 58.82-20.65 57.75-19.6 57.75-18.2L57.75-18.2Q57.75-17.35 58.2-16.73 58.65-16.1 59.4-15.63 60.15-15.15 61.12-14.78 62.1-14.4 63.15-14L63.15-14Q64.45-13.5 65.77-12.95 67.1-12.4 68.15-11.58 69.2-10.75 69.87-9.55 70.55-8.35 70.55-6.65L70.55-6.65Q70.55-5.15 69.97-3.85 69.4-2.55 68.27-1.55 67.15-0.55 65.47 0.03 63.8 0.6 61.65 0.6ZM82.89 0.6L82.89 0.6Q80.94 0.6 79.62 0 78.29-0.6 77.47-1.65 76.64-2.7 76.29-4.2 75.94-5.7 75.94-7.5L75.94-7.5 75.94-20.95 72.34-20.95 72.34-24.05 76.14-24.3 76.64-31.1 80.09-31.1 80.09-24.3 86.64-24.3 86.64-20.95 80.09-20.95 80.09-7.45Q80.09-5.2 80.92-3.98 81.74-2.75 83.84-2.75L83.84-2.75Q84.49-2.75 85.24-2.95 85.99-3.15 86.59-3.4L86.59-3.4 87.39-0.3Q86.39 0.05 85.22 0.33 84.04 0.6 82.89 0.6ZM110.94 0L102.54 0 102.54-32.8 110.74-32.8Q118.34-32.8 122.29-28.6 126.24-24.4 126.24-16.55L126.24-16.55Q126.24-12.65 125.24-9.58 124.24-6.5 122.29-4.38 120.34-2.25 117.49-1.13 114.64 0 110.94 0L110.94 0ZM106.69-29.4L106.69-3.4 110.44-3.4Q116.19-3.4 119.06-6.85 121.94-10.3 121.94-16.55L121.94-16.55Q121.94-22.8 119.06-26.1 116.19-29.4 110.44-29.4L110.44-29.4 106.69-29.4ZM142.34 0.6L142.34 0.6Q140.09 0.6 138.06-0.25 136.04-1.1 134.49-2.73 132.94-4.35 132.01-6.73 131.09-9.1 131.09-12.1L131.09-12.1Q131.09-15.15 132.01-17.53 132.94-19.9 134.49-21.55 136.04-23.2 138.06-24.05 140.09-24.9 142.34-24.9L142.34-24.9Q144.59-24.9 146.61-24.05 148.64-23.2 150.19-21.55 151.74-19.9 152.66-17.53 153.59-15.15 153.59-12.1L153.59-12.1Q153.59-9.1 152.66-6.73 151.74-4.35 150.19-2.73 148.64-1.1 146.61-0.25 144.59 0.6 142.34 0.6ZM142.34-2.8L142.34-2.8Q143.89-2.8 145.19-3.48 146.49-4.15 147.41-5.38 148.34-6.6 148.84-8.3 149.34-10 149.34-12.1L149.34-12.1Q149.34-14.2 148.84-15.93 148.34-17.65 147.41-18.9 146.49-20.15 145.19-20.83 143.89-21.5 142.34-21.5L142.34-21.5Q140.79-21.5 139.49-20.83 138.19-20.15 137.26-18.9 136.34-17.65 135.84-15.93 135.34-14.2 135.34-12.1L135.34-12.1Q135.34-10 135.84-8.3 136.34-6.6 137.26-5.38 138.19-4.15 139.49-3.48 140.79-2.8 142.34-2.8ZM174.53 0L170.38 0 170.38-32.8 174.53-32.8 174.53 0ZM190.78 0.6L190.78 0.6Q188.83 0.6 187.5 0 186.18-0.6 185.35-1.65 184.53-2.7 184.18-4.2 183.83-5.7 183.83-7.5L183.83-7.5 183.83-20.95 180.23-20.95 180.23-24.05 184.03-24.3 184.53-31.1 187.98-31.1 187.98-24.3 194.53-24.3 194.53-20.95 187.98-20.95 187.98-7.45Q187.98-5.2 188.8-3.98 189.63-2.75 191.73-2.75L191.73-2.75Q192.38-2.75 193.13-2.95 193.88-3.15 194.48-3.4L194.48-3.4 195.28-0.3Q194.28 0.05 193.1 0.33 191.93 0.6 190.78 0.6Z" opacity="1" transform="matrix(1,0,0,1,0,0)" fill="#ffffff" class="slogan-text-1" data-fill-palette-color="secondary" id="text-1"></path></svg></g></svg></g></svg></g></svg></g><g transform="matrix(1,0,0,1,153.71670974405498,0)"><svg viewBox="0 0 88.08658051188999 88.08658051188999" height="88.08658051188999" width="88.08658051188999"><g><svg></svg></g><g id="icon-0"><svg viewBox="0 0 88.08658051188999 88.08658051188999" height="88.08658051188999" width="88.08658051188999"><g><path d="M0 44.043c0-24.324 19.719-44.043 44.043-44.043 24.324 0 44.043 19.719 44.044 44.043 0 24.324-19.719 44.043-44.044 44.044-24.324 0-44.043-19.719-44.043-44.044zM44.043 86.233c23.301 0 42.19-18.889 42.19-42.19 0-23.301-18.889-42.19-42.19-42.19-23.301 0-42.19 18.889-42.19 42.19 0 23.301 18.889 42.19 42.19 42.19z" data-fill-palette-color="accent" fill="#ffffff" stroke="transparent"></path></g><g transform="matrix(1,0,0,1,19.47825780883922,22.85232472428985)"><svg viewBox="0 0 49.13006489421155 42.38193106331029" height="42.38193106331029" width="49.13006489421155"><g><svg xmlns="http://www.w3.org/2000/svg" xmlns:xlink="http://www.w3.org/1999/xlink" version="1.1" x="0" y="0" viewBox="0.507 7.136 98.51299999999999 84.982" enable-background="new 0 0 100 100" xml:space="preserve" height="42.38193106331029" width="49.13006489421155" class="icon-cg-0" data-fill-palette-color="accent" id="cg-0"><g fill="#dad603" data-fill-palette-color="accent"><path d="M22.048 42.728l3.781 4.727 12.813 17.784c0.061 0.085 0.131 0.137 0.207 0.163L23.004 90.852 15.187 44.39 22.048 42.728 22.048 42.728zM0.507 55.422c0.008-0.154 0.071-0.324 0.201-0.494l11.41-14.799c0.103-0.132 0.334-0.325 0.667-0.24l8.336 1.908c0.241 0.09 0.235 0.11 0.304 0.181l-6.647 1.611c-0.24 0.061-0.294 0.081-0.435 0.189L0.507 55.422 0.507 55.422zM19.537 87.812l-3.778-4.885c-0.027-0.031-0.048-0.07-0.065-0.111l2.475-1.047L19.537 87.812 19.537 87.812zM21.713 88.462c-0.284 0.136-0.674 0.322-1.066 0.287l-1.74-7.685c-0.065-0.285-0.329-0.418-0.598-0.307l-2.327 0.985c0.62-0.937 1.926-2.029 2.329-2.479L13.357 50.91 1.485 55.936c-0.115 0.047-0.224 0.073-0.325 0.082L14.382 44.89 21.713 88.462 21.713 88.462zM37.129 61.631l8.919-7.785-6.737 10.819L37.129 61.631 37.129 61.631zM39.486 86.967l-15.721 5.151c6.968-5.792 15.873-13.211 23.971-19.97L39.486 86.967 39.486 86.967zM98.23 86.475l-57.626 0.293 8.921-16.026L98.23 86.475 98.23 86.475zM99.02 85.784L50.25 70.055c9.45-7.883 17.344-14.474 18.996-15.854L99.02 85.784 99.02 85.784zM49.038 69.889c-0.044 0.032-0.08 0.07-0.104 0.112C40.737 76.85 31.492 84.555 24.16 90.65l22.048-35.404L49.038 69.889 49.038 69.889zM60.498 60.363l-10.686 8.914-2.798-14.482L60.498 60.363 60.498 60.363zM55.514 57.355l-7.964-3.289 8.808 1.449L55.514 57.355 55.514 57.355zM79.921 8.222c-0.108 1.073-5.56 50.118-5.56 50.118l-4.756-5.04c-0.146-0.159-0.437-0.178-0.604-0.038l-7.755 6.475c-0.039-0.035-4.927-2.043-4.927-2.043l6.82-14.868C63.143 42.824 79.249 9.773 79.921 8.222L79.921 8.222zM32.224 7.136c0.106 0.058 0.21 0.149 0.307 0.277l28.445 38.034-4.242 9.247-10.755-1.771c-0.06-0.01-0.313 0.062-0.359 0.104l-2.346 2.057L32.224 7.136 32.224 7.136zM26.009 46.159l5.342-38.442c0.013-0.084 0.03-0.16 0.056-0.228l11.118 48.247-5.909 5.181L26.009 46.159 26.009 46.159z" fill="#ffffff" data-fill-palette-color="accent"></path></g></svg></g></svg></g></svg></g></svg></g><g></g></svg></g><defs></defs></svg><rect width="395.52" height="135.88930694883618" fill="none" stroke="none" visibility="hidden"></rect></g></svg></g></svg>